<?xml version="1.0" encoding="UTF-8" standalone="no"?>
<!-- Created with Inkscape (http://www.inkscape.org/) -->

<svg
   xmlns:dc="http://purl.org/dc/elements/1.1/"
   xmlns:cc="http://creativecommons.org/ns#"
   xmlns:rdf="http://www.w3.org/1999/02/22-rdf-syntax-ns#"
   xmlns:svg="http://www.w3.org/2000/svg"
   xmlns="http://www.w3.org/2000/svg"
   xmlns:sodipodi="http://sodipodi.sourceforge.net/DTD/sodipodi-0.dtd"
   xmlns:inkscape="http://www.inkscape.org/namespaces/inkscape"
   width="187.45966mm"
   height="187.45966mm"
   viewBox="0 0 187.45966 187.45966"
   version="1.1"
   id="svg8"
   inkscape:version="0.92.2 5c3e80d, 2017-08-06"
   sodipodi:docname="cloud-forbidden.svg">
  <defs
     id="defs2" />
  <sodipodi:namedview
     id="base"
     pagecolor="#ffffff"
     bordercolor="#666666"
     borderopacity="1.0"
     inkscape:pageopacity="0.0"
     inkscape:pageshadow="2"
     inkscape:zoom="0.69544071"
     inkscape:cx="6.9853577"
     inkscape:cy="336.5547"
     inkscape:document-units="mm"
     inkscape:current-layer="layer1"
     showgrid="false"
     inkscape:window-width="1656"
     inkscape:window-height="933"
     inkscape:window-x="5"
     inkscape:window-y="0"
     inkscape:window-maximized="0"
     fit-margin-top="0"
     fit-margin-left="0"
     fit-margin-right="0"
     fit-margin-bottom="0" />
  <metadata
     id="metadata5">
    <rdf:RDF>
      <cc:Work
         rdf:about="">
        <dc:format>image/svg+xml</dc:format>
        <dc:type
           rdf:resource="http://purl.org/dc/dcmitype/StillImage" />
        <dc:title></dc:title>
      </cc:Work>
    </rdf:RDF>
  </metadata>
  <g
     inkscape:label="Calque 1"
     inkscape:groupmode="layer"
     id="layer1"
     transform="translate(-10.168462,-37.007201)">
    <path
       style="opacity:1;fill:#ffffff;fill-opacity:1;stroke:#ffffff;stroke-width:0.1;stroke-linecap:round;stroke-miterlimit:4;stroke-dasharray:none;stroke-dashoffset:0;stroke-opacity:1"
       id="path817"
       sodipodi:type="arc"
       sodipodi:cx="104.32533"
       sodipodi:cy="131.44733"
       sodipodi:rx="81.607422"
       sodipodi:ry="80.656281"
       sodipodi:start="2.2260453"
       sodipodi:end="2.2210886"
       sodipodi:open="true"
       d="M 54.597306,195.39939 A 81.607422,80.656281 0 0 1 39.557543,82.378169 81.607422,80.656281 0 0 1 153.89284,67.373655 81.607422,80.656281 0 0 1 169.21597,180.35769 81.607422,80.656281 0 0 1 54.918645,195.64222" />
    <path
       style="fill:#000000;stroke-width:0.26458332"
       d="m 62.119978,173.64024 -1.565077,-0.22827 -2.006798,-0.55051 -2.006803,-0.55052 -2.03442,-0.88158 -2.03442,-0.88158 -2.3312,-1.51673 -2.3312,-1.51673 -2.28075,-2.28075 -2.28075,-2.28074 -1.51673,-2.33121 -1.51673,-2.3312 -0.91952,-2.12186 -0.91951,-2.12185 -0.68501,-2.5584 -0.685,-2.5584 v -4.63021 -4.63021 l 0.685,-2.55839 0.68501,-2.5584 0.91951,-2.12186 0.91952,-2.12186 1.51673,-2.3312 1.51673,-2.3312 2.28075,-2.28075 2.28075,-2.28075 2.28751,-1.48825 2.28751,-1.48825 1.75037,-0.78534 1.75037,-0.78533 1.01649,-0.30455 1.016496,-0.30455 0.16036,-2.94632 0.160359,-2.94633 0.651604,-2.5584 0.651604,-2.5584 0.919516,-2.12185 0.919517,-2.12186 1.51673,-2.331197 1.51673,-2.33121 2.280748,-2.28074 2.280747,-2.28075 2.331204,-1.51673 2.331202,-1.51673 2.121857,-0.91952 2.121855,-0.91951 2.558399,-0.683 2.558399,-0.68298 4.497917,-0.01 4.497916,-0.01 1.185966,0.30223 1.185966,0.30224 0.771675,-0.97788 0.771676,-0.97788 2.096241,-2.04633 2.096246,-2.04633 2.35991,-1.57852 2.35992,-1.57852 1.97446,-0.93697 1.97446,-0.93696 1.93049,-0.64355 1.93049,-0.64355 2.11666,-0.43912 2.11667,-0.43913 3.07244,-0.14745 3.07243,-0.14745 2.55028,0.32101 2.55027,0.321 2.44708,0.64823 2.44708,0.64823 3.1857,1.55744 3.1857,1.55743 2.18681,1.62143 2.18681,1.62142 1.6953,1.69529 1.69529,1.6953 1.62143,2.18681 1.62142,2.18682 1.55744,3.1857 1.55743,3.18569 0.64823,2.44708 0.64823,2.44709 0.31956,2.538767 0.31955,2.53877 -0.13146,2.97908 -0.13147,2.97908 2.14619,1.41342 2.14618,1.41343 2.81495,2.79247 2.81495,2.79248 1.50295,2.31779 1.50294,2.31779 1.01819,2.18012 1.01818,2.18013 0.55165,1.7198 0.55165,1.71979 0.4014,1.85208 0.4014,1.85208 0.16516,3.19759 0.16517,3.19758 -0.3219,2.55742 -0.32191,2.55741 -0.64822,2.44709 -0.64823,2.44708 -1.55744,3.18569 -1.55743,3.1857 -1.65682,2.23826 -1.65683,2.23827 -1.60845,1.60844 -1.60845,1.60846 -2.23826,1.65682 -2.23826,1.65682 -3.1857,1.55388 -3.18569,1.55389 -1.98438,0.54778 -1.98437,0.54779 -2.51354,0.38618 -2.51355,0.38619 -38.62916,-0.0307 -38.629165,-0.0307 z m 82.383762,-8.91674 2.23743,-0.59814 2.4898,-1.17942 2.48979,-1.17943 1.76526,-1.30864 1.76526,-1.30864 1.452,-1.53778 1.45199,-1.53779 0.99151,-1.36697 0.99152,-1.36696 1.17734,-2.48538 1.17734,-2.48539 0.59025,-2.36536 0.59026,-2.36536 v -3.57187 -3.57188 l -0.5863,-2.3487 -0.5863,-2.3487 -1.04975,-2.2401 -1.04975,-2.24011 -1.25507,-1.75883 -1.25508,-1.75883 -1.67456,-1.67457 -1.67457,-1.67456 -2.42295,-1.56691 -2.42294,-1.5669 -2.33857,-0.83653 -2.33857,-0.83653 0.12473,-0.32505 0.12474,-0.32505 0.52964,-1.7148 0.52965,-1.71479 0.3213,-2.19742 0.32131,-2.19743 -0.16526,-2.40272 -0.16525,-2.40271 -0.54222,-2.23744 -0.54222,-2.237437 -1.17526,-2.48101 -1.17527,-2.48102 -0.99152,-1.36696 -0.99151,-1.36697 -1.452,-1.53778 -1.45199,-1.53779 -1.76526,-1.30864 -1.76526,-1.30864 -2.47827,-1.16968 -2.47828,-1.16968 -2.24895,-0.59815 -2.24896,-0.59815 h -3.83646 -3.83646 l -2.24896,0.59815 -2.24896,0.59815 -2.47827,1.16968 -2.47827,1.16968 -1.81968,1.34898 -1.81967,1.34898 -1.58784,1.73285 -1.58784,1.73284 -0.89822,1.35323 -0.898222,1.35323 -0.736367,1.50142 -0.736367,1.50143 -1.210874,-0.60589 -1.210873,-0.60589 -1.719792,-0.55245 -1.719791,-0.55244 -1.569948,-0.27808 -1.569947,-0.27807 h -1.682353 -1.682353 l -2.039366,0.41945 -2.039366,0.41945 -1.88935,0.73166 -1.88935,0.73166 -1.842061,1.2246 -1.84206,1.2246 -1.860706,1.958837 -1.860706,1.95884 -1.073328,1.81701 -1.07333,1.81702 -0.700812,2.10273 -0.700815,2.10273 -0.293979,2.32904 -0.293978,2.32904 0.292571,2.3151 0.292571,2.31511 0.536352,1.5875 0.536353,1.5875 0.158517,0.40992 0.158515,0.40992 -1.701964,-0.10837 -1.701964,-0.10838 -2.20857,0.44711 -2.208572,0.4471 -1.88935,0.73319 -1.889355,0.73318 -1.84206,1.2246 -1.84206,1.2246 -1.8607,1.95884 -1.86071,1.95884 -1.07333,1.81702 -1.07332,1.81701 -0.66069,1.98438 -0.66068,1.98437 -0.27864,1.71979 -0.27865,1.71979 -0.002,1.6648 -0.002,1.66481 0.41945,2.03936 0.41945,2.03937 0.73166,1.88935 0.73166,1.88935 1.2246,1.84206 1.22459,1.84206 1.95884,1.8607 1.95884,1.86071 1.81702,1.07333 1.81702,1.07333 2.02774,0.67564 2.027744,0.67564 1.411839,0.23773 1.41184,0.23774 38.893747,-0.0444 38.89375,-0.0444 2.23743,-0.59813 z"
       id="path1037"
       inkscape:connector-curvature="0" />
    <g
       transform="matrix(0.48413166,0,0,0.48413166,96.152181,128.8005)"
       style="stroke:#d40000;stroke-width:2.23000002"
       id="g3028">
      <g
         id="g4155">
        <path
           inkscape:connector-curvature="0"
           id="path3818"
           d="m -116.9899,106.24536 31.819808,31.8198 236.310532,-236.310518 -31.81982,-31.819802 z"
           style="color:#000000;font-style:normal;font-variant:normal;font-weight:normal;font-stretch:normal;font-size:medium;line-height:normal;font-family:Sans;-inkscape-font-specification:Sans;text-indent:0;text-align:start;text-decoration:none;text-decoration-line:none;letter-spacing:normal;word-spacing:normal;text-transform:none;writing-mode:lr-tb;direction:ltr;baseline-shift:baseline;text-anchor:start;display:inline;overflow:visible;visibility:visible;fill:#d40000;fill-opacity:1;stroke:none;stroke-width:2.23000002;marker:none;enable-background:accumulate"
           sodipodi:nodetypes="ccccc" />
        <circle
           cx="16"
           cy="4"
           r="171.304"
           id="circle3030"
           style="fill:none;stroke-width:44.59999847" />
      </g>
    </g>
  </g>
</svg>
